<?xml version="1.0" encoding="utf-8"?>
<!-- Generator: Adobe Illustrator 24.3.0, SVG Export Plug-In . SVG Version: 6.00 Build 0)  -->
<svg version="1.1" id="fluxLogo" xmlns="http://www.w3.org/2000/svg" xmlns:xlink="http://www.w3.org/1999/xlink" x="0px" y="0px"
	 viewBox="0 0 250 250" style="enable-background:new 0 0 250 250;" xml:space="preserve">
<style type="text/css">
	.st0{fill:#2C1BFF;}
	.st1{opacity:0.62;fill:#EA51FF;}
	.st2{fill:#EA51FF;}
	.st3{fill:#1BFFFF;}
</style>
<circle id="back-circle" class="st0" cx="124.9" cy="125.9" r="118.9"/>
<g id="logo-group">
	<g id="M-group">
		<path id="center-line" class="st1" d="M124.9,196.2L124.9,196.2c-5.1,0-9.4-4.2-9.4-9.4V63.1c0-5.1,4.2-9.4,9.4-9.4h0
			c5.1,0,9.4,4.2,9.4,9.4v123.7C134.2,192,130,196.2,124.9,196.2z"/>
		<path id="m-path" class="st2" d="M163.6,84.3c-3.5,0-6.6,2-8.2,4.9l-29.9,30.9L93.9,88.5c-1.7-2.5-4.5-4.1-7.8-4.1
			c-5.1,0-9.4,4.2-9.4,9.4v72.1c0,5.1,4.2,9.4,9.4,9.4c5.1,0,9.4-4.2,9.4-9.4v-49.3l24.1,24.1c3.3,3.3,8.8,3.3,12.1,0l1.1-1.1l0,0
			l0,0l0,0c0,0,0,0,0,0l21.4-22.2v48.5c0,5.1,4.2,9.4,9.4,9.4c5.1,0,9.4-4.2,9.4-9.4V93.7C173,88.6,168.8,84.3,163.6,84.3z"/>
	</g>
	<path id="line-right" class="st3" d="M197,150.4h-1.4c-3.5,0-6.4-2.9-6.4-6.4v-25.2c0-3.5,2.9-6.4,6.4-6.4h1.4
		c3.5,0,6.4,2.9,6.4,6.4V144C203.4,147.5,200.5,150.4,197,150.4z"/>
	<path id="line-left" class="st3" d="M54.3,150.4h-1.4c-3.5,0-6.4-2.9-6.4-6.4v-25.2c0-3.5,2.9-6.4,6.4-6.4h1.4
		c3.5,0,6.4,2.9,6.4,6.4V144C60.7,147.5,57.8,150.4,54.3,150.4z"/>
</g>
</svg>
