<?xml version="1.0" encoding="utf-8"?>
<!-- Generator: Adobe Illustrator 26.5.0, SVG Export Plug-In . SVG Version: 6.00 Build 0)  -->
<svg version="1.1" xmlns="http://www.w3.org/2000/svg" xmlns:xlink="http://www.w3.org/1999/xlink" x="0px" y="0px"
	 viewBox="0 0 250 250" style="enable-background:new 0 0 250 250;" xml:space="preserve">
<style type="text/css">
	.st0{display:none;}
	.st1{display:inline;}
	.st2{opacity:0.22;fill:#FFFFFF;}
	.st3{display:inline;opacity:0.85;fill:#FFFFFF;}
	.st4{display:inline;fill:#FFFFFC;}
	.st5{display:inline;opacity:0.6;}
	.st6{fill:#FFFFFC;}
	.st7{opacity:0.52;fill:#FFFFFF;enable-background:new    ;}
	.st8{display:inline;fill:#FFFFFF;}
	.st9{display:inline;opacity:0.26;fill:#FFFFFF;enable-background:new    ;}
	.st10{opacity:0.85;fill:#FFFFFF;}
	.st11{opacity:0.2;fill:#FFFFFF;}
	.st12{display:inline;opacity:0.23;}
	.st13{display:inline;opacity:0.52;}
</style>
<g id="fluxLogo" class="st0">
	
		<image style="display:inline;overflow:visible;" width="238" height="238" id="back-circle" xlink:href="E2803F0A8983C279.png"  transform="matrix(1 0 0 1 6 6)">
	</image>
	<g class="st1">
		<path id="m-path_00000030485482993972578210000017218922493618996391_" class="st2" d="M159.6,83.3c-3.5,0-6.6,2-8.2,4.9
			l-29.9,30.9L89.9,87.5c-1.7-2.5-4.5-4.1-7.8-4.1c-5.1,0-9.4,4.2-9.4,9.4v72.1c0,5.1,4.2,9.4,9.4,9.4c5.1,0,9.4-4.2,9.4-9.4v-49.3
			l24.1,24.1c3.3,3.3,8.8,3.3,12.1,0l1.1-1.1l0,0l0,0l0,0l0,0l21.4-22.2v48.5c0,5.1,4.2,9.4,9.4,9.4c5.1,0,9.4-4.2,9.4-9.4V92.7
			C169,87.6,164.8,83.3,159.6,83.3z"/>
		<path id="m-path_00000076588557974461518260000008893834630804202672_" class="st2" d="M167.6,83.3c-3.5,0-6.6,2-8.2,4.9
			l-29.9,30.9L97.9,87.5c-1.7-2.5-4.5-4.1-7.8-4.1c-5.1,0-9.4,4.2-9.4,9.4v72.1c0,5.1,4.2,9.4,9.4,9.4c5.1,0,9.4-4.2,9.4-9.4v-49.3
			l24.1,24.1c3.3,3.3,8.8,3.3,12.1,0l1.1-1.1l0,0l0,0l0,0l0,0l21.4-22.2v48.5c0,5.1,4.2,9.4,9.4,9.4c5.1,0,9.4-4.2,9.4-9.4V92.7
			C177,87.6,172.8,83.3,167.6,83.3z"/>
	</g>
	<path id="m-path" class="st3" d="M163.6,83.3c-3.5,0-6.6,2-8.2,4.9l-29.9,30.9L93.9,87.5c-1.7-2.5-4.5-4.1-7.8-4.1
		c-5.1,0-9.4,4.2-9.4,9.4v72.1c0,5.1,4.2,9.4,9.4,9.4c5.1,0,9.4-4.2,9.4-9.4v-49.3l24.1,24.1c3.3,3.3,8.8,3.3,12.1,0l1.1-1.1l0,0
		l0,0l0,0l0,0l21.4-22.2v48.5c0,5.1,4.2,9.4,9.4,9.4c5.1,0,9.4-4.2,9.4-9.4V92.7C173,87.6,168.8,83.3,163.6,83.3z"/>
	<path class="st4" d="M199,281.4h-1.4c-0.4,0-0.9,0-1.3,0.1c2.9,0.6,5.1,3.2,5.1,6.3V313c0,3.1-2.2,5.7-5.1,6.3
		c0.4,0.1,0.9,0.1,1.3,0.1h1.4c3.5,0,6.4-2.9,6.4-6.4v-25.2C205.4,284.3,202.5,281.4,199,281.4z"/>
	<path class="st4" d="M48.5,313v-25.2c0-3.1,2.2-5.7,5.1-6.3c-0.4-0.1-0.9-0.1-1.3-0.1h-1.4c-3.5,0-6.4,2.9-6.4,6.4V313
		c0,3.5,2.9,6.4,6.4,6.4h1.4c0.4,0,0.9,0,1.3-0.1C50.7,318.7,48.5,316.1,48.5,313z"/>
	<g class="st5">
		<path id="line-right_00000182525595484086991900000017544390282803346324_" class="st6" d="M195,149.4h-1.4
			c-3.5,0-6.4-2.9-6.4-6.4v-25.2c0-3.5,2.9-6.4,6.4-6.4h1.4c3.5,0,6.4,2.9,6.4,6.4V143C201.4,146.5,198.5,149.4,195,149.4z"/>
		<path id="line-left_00000152972625915511093310000011939524682545901196_" class="st6" d="M52.3,149.4h-1.4
			c-3.5,0-6.4-2.9-6.4-6.4v-25.2c0-3.5,2.9-6.4,6.4-6.4h1.4c3.5,0,6.4,2.9,6.4,6.4V143C58.7,146.5,55.8,149.4,52.3,149.4z"/>
	</g>
	<g class="st5">
		<path id="line-right_00000101099945286956874200000011484136909199729846_" class="st6" d="M199,149.4h-1.4
			c-3.5,0-6.4-2.9-6.4-6.4v-25.2c0-3.5,2.9-6.4,6.4-6.4h1.4c3.5,0,6.4,2.9,6.4,6.4V143C205.4,146.5,202.5,149.4,199,149.4z"/>
		<path id="line-left_00000127725593719026743020000018176915088356171423_" class="st6" d="M56.3,149.4h-1.4
			c-3.5,0-6.4-2.9-6.4-6.4v-25.2c0-3.5,2.9-6.4,6.4-6.4h1.4c3.5,0,6.4,2.9,6.4,6.4V143C62.7,146.5,59.8,149.4,56.3,149.4z"/>
	</g>
	<g class="st1">
		<g>
			<path id="center-line_00000072252707145502280750000016435280419577104038_" class="st7" d="M127,185.9L127,185.9
				c-5.1,0-9.4-3.6-9.4-8V72.8c0-4.3,4.2-8,9.4-8l0,0c5.1,0,9.4,3.6,9.4,8v105.2C136.3,182.4,132.1,185.9,127,185.9z"/>
		</g>
		<path id="center-line" class="st7" d="M122.7,185.9L122.7,185.9c-5.1,0-9.4-3.6-9.4-8V72.8c0-4.3,4.2-8,9.4-8l0,0
			c5.1,0,9.4,3.6,9.4,8v105.2C132,182.4,127.8,185.9,122.7,185.9z"/>
	</g>
	<path class="st8" d="M298.7,80.7"/>
	<path class="st9" d="M170,45.4c-3.2-4.1-9.2-4.8-13.2-1.7l-31.5,23.1c-2.3,1.1-4,3-4.9,5.4c-0.4,0.9-0.6,1.6-0.6,2.1
		c0,0.4,0,0.7,0,1.1c0,3.8,0,7,0,11v81.3v2.2c0,0,0,3-1,5c-0.3,0.7-1.2,1.4-1.5,1.7c-0.7,0.8-27.2,18.8-27.2,18.8
		c-4.1,3.2-4.8,9.2-1.7,13.2c3.2,4.1,9.2,4.8,13.2,1.7l30.3-22.2c3.2-1,5.7-3.8,6.4-7.2c0.1-0.5,0.2-0.9,0.2-1.2c0-0.2,0-0.4,0-0.6
		v-11.4V86.2v-2.2c0,0,0-3,1-5c0.3-0.7,1.2-1.4,1.5-1.7c0.7-0.8,27.2-18.8,27.2-18.8C172.5,55.4,173.2,49.4,170,45.4z"/>
	<path class="st9" d="M159,42.4c-3.2-4.1-9.2-4.8-13.2-1.7l-31.5,23.1c-2.3,1.1-4,3-4.9,5.4c-0.4,0.9-0.6,1.6-0.6,2.1
		c0,0.4,0,0.7,0,1.1c0,3.8,0,7,0,11v81.3v2.2c0,0,0,3-1,5c-0.3,0.7-1.2,1.4-1.5,1.7c-0.7,0.8-27.2,18.8-27.2,18.8
		c-4.1,3.2-4.8,9.2-1.7,13.2c3.2,4.1,9.2,4.8,13.2,1.7l30.3-22.2c3.2-1,5.7-3.8,6.4-7.2c0.1-0.5,0.2-0.9,0.2-1.2c0-0.2,0-0.4,0-0.6
		v-11.4V83.2v-2.2c0,0,0-3,1-5c0.3-0.7,1.2-1.4,1.5-1.7c0.7-0.8,27.2-18.8,27.2-18.8C161.5,52.4,162.2,46.4,159,42.4z"/>
	<path class="st8" d="M-45.9,311.3h-1.4c-0.4,0-0.9,0-1.3,0.1c2.9,0.6,5.1,3.2,5.1,6.3v65.2c0,3.1-2.2,5.7-5.1,6.3
		c0.4,0.1,0.9,0.1,1.3,0.1h1.4c3.5,0,6.4-2.9,6.4-6.4v-65.2C-39.5,314.2-42.4,311.3-45.9,311.3z"/>
	<path class="st8" d="M-185.4,382.9v-65.2c0-3.1,2.2-5.7,5.1-6.3c-0.4-0.1-0.9-0.1-1.3-0.1h-1.4c-3.5,0-6.4,2.9-6.4,6.4v65.2
		c0,3.5,2.9,6.4,6.4,6.4h1.4c0.4,0,0.9,0,1.3-0.1C-183.2,388.6-185.4,386-185.4,382.9z"/>
	<g class="st1">
		<g>
			<path class="st10" d="M-144.9,309l31.6,31.6l2-2l-29.6-29.6c-1.7-2.5-4.5-4.1-7.8-4.1c-0.7,0-1.3,0.1-2,0.2
				C-148.3,305.7-146.3,307.1-144.9,309z"/>
			<path class="st10" d="M-143.3,337.1v49.3c0,4.5-3.2,8.3-7.4,9.2c0.6,0.1,1.3,0.2,2,0.2c5.1,0,9.4-4.2,9.4-9.4v-45.3L-143.3,337.1
				z"/>
			<path class="st10" d="M-84.6,337.9l-21.4,22.2l-1.1,1.1c-1.1,1.1-2.6,1.9-4,2.2c2.8,0.7,5.9-0.1,8-2.2l1.1-1.1l17.4-18.1V337.9z"
				/>
			<path class="st10" d="M-71.2,304.8c-0.7,0-1.3,0.1-2,0.2c4.2,1,7.4,4.8,7.4,9.2v72.2c0,4.5-3.2,8.3-7.4,9.2
				c0.6,0.1,1.3,0.2,2,0.2c5.1,0,9.4-4.2,9.4-9.4v-72.2C-61.8,309.1-66,304.8-71.2,304.8z"/>
		</g>
		<path id="m-path_00000040536269267291206250000008750135762568025520_" class="st11" d="M-80.2,305.4c-3.5,0-6.6,2-8.2,4.9
			l-29.9,30.9l-31.6-31.6c-1.7-2.5-4.5-4.1-7.8-4.1c-5.1,0-9.4,4.2-9.4,9.4V387c0,5.1,4.2,9.4,9.4,9.4c5.1,0,9.4-4.2,9.4-9.4v-49.3
			l24.1,24.1c3.3,3.3,8.8,3.3,12.1,0l1.1-1.1l0,0l0,0l0,0l0,0l21.4-22.2V387c0,5.1,4.2,9.4,9.4,9.4c5.1,0,9.4-4.2,9.4-9.4v-72.2
			C-70.8,309.7-75,305.4-80.2,305.4z"/>
	</g>
	<g class="st1">
		<g>
			<path d="M-191,114.3c5.7-7.4,11.8-16.9,19.6-23.8c4.5-3.9,11.5-9.7,17.1-12.3c1.3-1,1.8-1,3.2-1.5c3.4-1.3,6.3-2.1,9.9-2
				c1.7,0,3.4,0.4,5.2,1.3c1.4,1.5,2.1,2.7,2,3.9c0,1.5-0.8,3.2-2.4,6.2l-0.1,1.1c-4.1,4.9-1.8,2.5-7.1,7.3
				c-6.2,4.3-2.8,1.7-9.9,8.4c-8.1,5-4.9,2.8-10.2,5.7c-14,7.7-8.5,5.2-15.8,7.8c-5.2,1.8-2.5,1.3-7.1,3.2
				c-4.3,5.2-4.6,5.3-7.8,11.5c-2.8,3.1-2.1,1-3.5,5.3c-2.2,4.3-2.9,4.2-2.9,5.3c0,0.4,0.1,1.1,0.3,2.4c0.7,2.4,1.5,2.1,5.2,2.7
				l4.6-1c3.2-0.7,8.3-2.2,10.8-4.2h0.6c0.6,0,0.7,0.1,0.7,0.3c0,0.7-3.8,2.5-4.2,2.8l-4.9,2.1c-5.2,2.2-2.8,1-7.6,2.7l-3.1,1.1
				c-2.5,0.8-4.2,1.3-5,3.4l-2.2,8.4l-0.7,2.4l-2.8,7.4l-2.2,3.5l-2.4,4.9l-2.1,3.5l-2.2,3.5c-2.5,3.9-3.2,5.2-5.9,9.1l-7.7,10.9
				c-2.4,1.4-1.4,0.4-2.7,2.9l-3.8,3.6c-1,0.7-1.8,1.1-3.1,1c-0.6,0-0.6-0.6-0.4-2.5c1.4-3.5,2.7-6.4,4.5-9.8
				c3.6-10.1-0.3-1.4,7.4-17.2c1.5-4.9-0.4-0.3,4.8-9.9c2.9-5.5,0.7-2.8,5-8.8c1.8-5.3,3.5-7.6,6-12.3c0.7-1.5,1.5-1.7,1.5-2.2
				c0-0.8-0.8-1.4-3.1-3.6c0-2.9,3.2-4.9,5.7-4.9l1.4-0.7c2.8-6.4,5.7-9,9.5-15.1l1.4-2.2c0.3-0.8,0.4-1.5,0.4-2.1
				c0.1-0.8-0.3-1.1-1.1-1.3c-1.5,0-4.6,1.3-8.3,2c-2.7,0.1-4.1,0.8-6,0.8c-0.7,0-1-0.6-2-0.8c-1.3,0.6-3.6,0.3-4.8-0.3
				c-3.6-2.2-4.6-2-4.9-6.2c0.3-3.2,0.8-5.6,2.5-7.4c0-2.5,5.6-8.1,9.2-10.8c3.2-2.2,6.7-4.1,10.1-5.6c1.1-0.1,2.2-0.6,3.1-0.4
				c0.8,0,1.4,0.3,1.4,1.4l-3.4,1.8c-7.6,1.1-8.5,3.4-13.4,9.7c-0.7,2.2-1.4,4.1-1.5,6.4c-0.1,5.2,1,4.5,2.4,6.2
				c1.8,1.5,3.5,2,5.7,2.1c4.5,0.1,9-1,13.3-1.8L-191,114.3z M-207.5,156.5l-0.6-0.3l-1,1.5l-1.7,2.4l-2.7,5.9l-2.7,4.2
				c-2.5,4.1-1.3,1.5-3.9,7.3c-1.1,3.5,0.7,0-2.2,3.8l-1,2.1l-3.2,5.6c0.1,0.7,0.1,1.3,0,2l-0.7,1.1c-1,2.5-2.8,7.6-4.5,9.4
				c-0.1,0.3-0.3,0.7-0.3,1.1c-0.1,0.4,0,0.8,0.3,0.8c0.1,0,0.6-0.1,1.1-0.6l0.7-1.4l3.6-5.6l4.6-7.6c2.5-2.5,1-0.7,3.6-6
				c1.7-1.7,1-0.1,1.3-2.8c3.5-5.5,2-2.4,4.6-9.5l1.8-2.9l2.1-6.7l0.7-2.4L-207.5,156.5z M-184.6,115.2v0.6l0.4,0.3l6.7-2.5
				c4.5-1.7,16.5-8.4,19.3-10.5c3.1-1.7,5-4.2,8-6c4.9-3.8,7.1-5.6,10.6-10.9c1-3.5,0.4-2,1.8-4.8c0.1-0.6,0.1-0.8,0.1-1.3
				c0.1-1.3-0.7-1.8-3.1-2.9c-1.7,0.3-2.4,0.4-2.7,0.3c-0.4,0-0.1-0.1-1.7,0c-2.9-0.1-6.9,1.4-9.1,3.2c-5.3,2-11.3,7.8-14.8,12.7
				c-2.1,2.9-1,1.7-3.5,4.1l-5,5.7c-2.9,5.6-1.4,3.5-4.1,6.6L-184.6,115.2z"/>
		</g>
		<g>
			<path d="M-249.2,143.7c-6,3.7-8,4.6-9.5,6c-2.3,1.4-3.7,4.3-13.8,14c-4.3,2.9-6.6,5.4-10.9,5.4c-0.9,0-1.7,0-2.6-0.3l-0.9-1.4
				c2.9-10,0.6-3.7,8-18.6c0.3-1.1,0.9-2,0.9-2.9c0-0.3-0.3-0.9-0.9-1.4l-3.2,1.1c-8.6,4.9-14,9.5-20.9,17.2
				c-3.4,2.9-8.6,5.7-13.2,5.7c-0.6-0.9-0.9-1.7-0.9-2.6c0-1.7,1.1-3.7,1.7-6.3l6.6-14v-2l-2.6-1.4h-2.6l-6.3,3.4l-6,4l-5.4,3.2
				h-0.3c-0.9,0-1.1-0.3-1.1-0.6c0-1.4,5.4-5.7,8.3-7.5l7.2-4.6c12.6-8,6.6-7.2,16.6-7.7c2,1.4,3.4,3.2,3.4,5.7c0,4.9-6,11.5-6,14.6
				c0,0.9,0.3,1.4,1.4,2l12.6-8.9c9.2-6.3,10-9.2,19.8-11.7c1.7,0.9,2.3,2.3,2.3,4.3c0,5.2-4.3,12.9-5.2,14.6l-0.3,2.6l3.2-0.9
				l3.7-3.2c5.7-4.9,17.5-17.2,26.1-16.9c4,0,4.9,1.4,4.9,3.7c0,1.1-0.3,2.3-0.3,3.7c-2,6-7.7,10.6-7.7,14c0,1.1,0.6,2,1.7,2.9
				c5.4-2.3,10.3-5.2,15.5-8c1.1-0.9,4.3-2.6,5.7-2.6c0.3,0,0.6,0,0.6,0.6c0,0.3-0.3,0.9-1.1,2l-5.7,3.7l-3.2,2
				c-6.9,4.3-16,12.9-24.4,12.9c-1.1-2.9-2-4.6-2-6c0-2.9,1.7-4.9,5.2-9.7l4.9-7.2c0-0.9,0.3-1.4,0.3-1.7c0-1.1-0.6-1.4-1.7-1.4
				H-249.2z"/>
		</g>
		<path d="M-165.8,131.7h-1.4c-0.4,0-0.9,0-1.3,0.1c2.9,0.6,5.1,3.2,5.1,6.3v25.2c0,3.1-2.2,5.7-5.1,6.3c0.4,0.1,0.9,0.1,1.3,0.1
			h1.4c3.5,0,6.4-2.9,6.4-6.4v-25.2C-159.4,134.6-162.3,131.7-165.8,131.7z"/>
		<path d="M-342.3,163.3v-25.2c0-3.1,2.2-5.7,5.1-6.3c-0.4-0.1-0.9-0.1-1.3-0.1h-1.4c-3.5,0-6.4,2.9-6.4,6.4v25.2
			c0,3.5,2.9,6.4,6.4,6.4h1.4c0.4,0,0.9,0,1.3-0.1C-340.1,168.9-342.3,166.3-342.3,163.3z"/>
	</g>
	<g class="st1">
		<path d="M72.4,485.9c-6,3.7-8,4.6-9.5,6c-2.3,1.4-3.7,4.3-13.8,14c-4.3,2.9-6.6,5.4-10.9,5.4c-0.9,0-1.7,0-2.6-0.3l-0.9-1.4
			c2.9-10,0.6-3.7,8-18.6c0.3-1.1,0.9-2,0.9-2.9c0-0.3-0.3-0.9-0.9-1.4l-3.2,1.1c-8.6,4.9-14,9.5-20.9,17.2
			c-3.4,2.9-8.6,5.7-13.2,5.7c-0.6-0.9-0.9-1.7-0.9-2.6c0-1.7,1.1-3.7,1.7-6.3l6.6-14v-2l-2.6-1.4H8l-6.3,3.4l-6,4l-5.4,3.2h-0.3
			c-0.9,0-1.1-0.3-1.1-0.6c0-1.4,5.4-5.7,8.3-7.5l7.2-4.6c12.6-8,6.6-7.2,16.6-7.7c2,1.4,3.4,3.2,3.4,5.7c0,4.9-6,11.5-6,14.6
			c0,0.9,0.3,1.4,1.4,2l12.6-8.9c9.2-6.3,10-9.2,19.8-11.7c1.7,0.9,2.3,2.3,2.3,4.3c0,5.2-4.3,12.9-5.2,14.6l-0.3,2.6l3.2-0.9
			l3.7-3.2c5.7-4.9,17.5-17.2,26.1-16.9c4,0,4.9,1.4,4.9,3.7c0,1.1-0.3,2.3-0.3,3.7c-2,6-7.7,10.6-7.7,14c0,1.1,0.6,2,1.7,2.9
			c5.4-2.3,10.3-5.2,15.5-8c1.1-0.9,4.3-2.6,5.7-2.6c0.3,0,0.6,0,0.6,0.6c0,0.3-0.3,0.9-1.1,2l-5.7,3.7l-3.2,2
			c-6.9,4.3-16,12.9-24.4,12.9c-1.1-2.9-2-4.6-2-6c0-2.9,1.7-4.9,5.2-9.7l4.9-7.2c0-0.9,0.3-1.4,0.3-1.7c0-1.1-0.6-1.4-1.7-1.4H72.4
			z"/>
	</g>
	<path class="st1" d="M110,474.4h-1.4c-0.4,0-0.9,0-1.3,0.1c2.9,0.6,5.1,3.2,5.1,6.3V506c0,3.1-2.2,5.7-5.1,6.3
		c0.4,0.1,0.9,0.1,1.3,0.1h1.4c3.5,0,6.4-2.9,6.4-6.4v-25.2C116.4,477.3,113.5,474.4,110,474.4z"/>
	<path class="st1" d="M-21.5,506v-25.2c0-3.1,2.2-5.7,5.1-6.3c-0.4-0.1-0.9-0.1-1.3-0.1h-1.4c-3.5,0-6.4,2.9-6.4,6.4V506
		c0,3.5,2.9,6.4,6.4,6.4h1.4c0.4,0,0.9,0,1.3-0.1C-19.3,511.6-21.5,509-21.5,506z"/>
	<g class="st1">
		<path d="M78.1,541.7c-6,3.7-8,4.6-9.5,6c-2.3,1.4-3.7,4.3-13.8,14c-4.3,2.9-6.6,5.4-10.9,5.4c-0.9,0-1.7,0-2.6-0.3l-0.9-1.4
			c2.9-10,0.6-3.7,8-18.6c0.3-1.1,0.9-2,0.9-2.9c0-0.3-0.3-0.9-0.9-1.4l-3.2,1.1c-8.6,4.9-14,9.5-20.9,17.2
			c-3.4,2.9-8.6,5.7-13.2,5.7c-0.6-0.9-0.9-1.7-0.9-2.6c0-1.7,1.1-3.7,1.7-6.3l6.6-14v-2l-2.6-1.4h-2.6l-6.3,3.4l-6,4l-5.4,3.2h-0.3
			c-0.9,0-1.1-0.3-1.1-0.6c0-1.4,5.4-5.7,8.3-7.5l7.2-4.6c12.6-8,6.6-7.2,16.6-7.7c2,1.4,3.4,3.2,3.4,5.7c0,4.9-6,11.5-6,14.6
			c0,0.9,0.3,1.4,1.4,2L38,544c9.2-6.3,10-9.2,19.8-11.7c1.7,0.9,2.3,2.3,2.3,4.3c0,5.2-4.3,12.9-5.2,14.6l-0.3,2.6l3.2-0.9l3.7-3.2
			c5.7-4.9,17.5-17.2,26.1-16.9c4,0,4.9,1.4,4.9,3.7c0,1.1-0.3,2.3-0.3,3.7c-2,6-7.7,10.6-7.7,14c0,1.1,0.6,2,1.7,2.9
			c5.4-2.3,10.3-5.2,15.5-8c1.1-0.9,4.3-2.6,5.7-2.6c0.3,0,0.6,0,0.6,0.6c0,0.3-0.3,0.9-1.1,2l-5.7,3.7l-3.2,2
			c-6.9,4.3-16,12.9-24.4,12.9c-1.1-2.9-2-4.6-2-6c0-2.9,1.7-4.9,5.2-9.7l4.9-7.2c0-0.9,0.3-1.4,0.3-1.7c0-1.1-0.6-1.4-1.7-1.4H78.1
			z"/>
	</g>
	<g class="st12">
		<path d="M84.9,538.7c-7.8,5.1-10.3,6.3-12.2,8.2c-3,2-4.8,5.9-17.7,19.2c-5.5,3.9-8.5,7.4-14,7.4c-1.1,0-2.2,0-3.3-0.4l-1.1-2
			c3.7-13.7,0.7-5.1,10.3-25.4c0.4-1.6,1.1-2.7,1.1-3.9c0-0.4-0.4-1.2-1.1-2l-4.1,1.6c-11.1,6.6-18.1,12.9-27,23.5
			c-4.4,3.9-11.1,7.8-17,7.8c-0.7-1.2-1.1-2.3-1.1-3.5c0-2.3,1.5-5.1,2.2-8.6l8.5-19.2v-2.7l-3.3-2H1.8l-8.1,4.7l-7.8,5.5l-7,4.3
			h-0.4c-1.1,0-1.5-0.4-1.5-0.8c0-2,7-7.8,10.7-10.2L-3,534c16.2-10.9,8.5-9.8,21.4-10.6c2.6,2,4.4,4.3,4.4,7.8
			c0,6.6-7.8,15.6-7.8,19.9c0,1.2,0.4,2,1.8,2.7l16.2-12.1c11.8-8.6,12.9-12.5,25.5-16c2.2,1.2,3,3.1,3,5.9c0,7-5.5,17.6-6.6,19.9
			l-0.4,3.5l4.1-1.2l4.8-4.3c7.4-6.6,22.5-23.5,33.6-23.1c5.2,0,6.3,2,6.3,5.1c0,1.6-0.4,3.1-0.4,5.1c-2.6,8.2-10,14.5-10,19.2
			c0,1.6,0.7,2.7,2.2,3.9c7-3.1,13.3-7,19.9-10.9c1.5-1.2,5.5-3.5,7.4-3.5c0.4,0,0.7,0,0.7,0.8c0,0.4-0.4,1.2-1.5,2.7l-7.4,5.1
			l-4.1,2.7c-8.9,5.9-20.7,17.6-31.4,17.6c-1.5-3.9-2.6-6.3-2.6-8.2c0-3.9,2.2-6.6,6.6-13.3l6.3-9.8c0-1.2,0.4-2,0.4-2.3
			c0-1.6-0.7-2-2.2-2H84.9z"/>
	</g>
	<path class="st1" d="M115.7,530.1h-1.4c-0.4,0-0.9,0-1.3,0.1c2.9,0.6,5.1,3.2,5.1,6.3v25.2c0,3.1-2.2,5.7-5.1,6.3
		c0.4,0.1,0.9,0.1,1.3,0.1h1.4c3.5,0,6.4-2.9,6.4-6.4v-25.2C122.1,533,119.2,530.1,115.7,530.1z"/>
	<path class="st13" d="M-53.3,841h-50.8c-3.3,0-6-2.7-6-6v-50.8c0-3.3,2.7-6,6-6h50.8c3.3,0,6,2.7,6,6V835
		C-47.3,838.3-50,841-53.3,841z"/>
	<path class="st1" d="M-15.8,561.7v-25.2c0-3.1,2.2-5.7,5.1-6.3c-0.4-0.1-0.9-0.1-1.3-0.1h-1.4c-3.5,0-6.4,2.9-6.4,6.4v25.2
		c0,3.5,2.9,6.4,6.4,6.4h1.4c0.4,0,0.9,0,1.3-0.1C-13.6,567.4-15.8,564.8-15.8,561.7z"/>
	<g class="st1">
		<path d="M75,610.7c-6,3.7-8,4.6-9.5,6c-2.3,1.4-3.7,4.3-13.8,14c-4.3,2.9-6.6,5.4-10.9,5.4c-0.9,0-1.7,0-2.6-0.3l-0.9-1.4
			c2.9-10,0.6-3.7,8-18.6c0.3-1.1,0.9-2,0.9-2.9c0-0.3-0.3-0.9-0.9-1.4l-3.2,1.1c-8.6,4.9-14,9.5-20.9,17.2
			c-3.4,2.9-8.6,5.7-13.2,5.7c-0.6-0.9-0.9-1.7-0.9-2.6c0-1.7,1.1-3.7,1.7-6.3l6.6-14v-2l-2.6-1.4h-2.6l-46.3,23.4l-6,4l-5.4,3.2
			h-0.3c-0.9,0-1.1-0.3-1.1-0.6c0-1.4,5.4-5.7,8.3-7.5l47.2-24.6c12.6-8,6.6-7.2,16.6-7.7c2,1.4,3.4,3.2,3.4,5.7
			c0,4.9-6,11.5-6,14.6c0,0.9,0.3,1.4,1.4,2l12.6-8.9c9.2-6.3,10-9.2,19.8-11.7c1.7,0.9,2.3,2.3,2.3,4.3c0,5.2-4.3,12.9-5.2,14.6
			l-0.3,2.6l3.2-0.9l3.7-3.2c5.7-4.9,17.5-17.2,26.1-16.9c4,0,4.9,1.4,4.9,3.7c0,1.1-0.3,2.3-0.3,3.7c-2,6-7.7,10.6-7.7,14
			c0,1.1,0.6,2,1.7,2.9c5.4-2.3,41.3-26.2,46.5-29c1.1-0.9,4.3-2.6,5.7-2.6c0.3,0,0.6,0,0.6,0.6c0,0.3-0.3,0.9-1.1,2l-5.7,3.7
			l-3.2,2c-6.9,4.3-47,33.9-55.4,33.9c-1.1-2.9-2-4.6-2-6c0-2.9,1.7-4.9,5.2-9.7l4.9-7.2c0-0.9,0.3-1.4,0.3-1.7
			c0-1.1-0.6-1.4-1.7-1.4H75z"/>
	</g>
	<path class="st1" d="M112.6,599.1h-1.4c-0.4,0-0.9,0-1.3,0.1c2.9,0.6,5.1,3.2,5.1,6.3v25.2c0,3.1-2.2,5.7-5.1,6.3
		c0.4,0.1,0.9,0.1,1.3,0.1h1.4c3.5,0,6.4-2.9,6.4-6.4v-25.2C119,602,116.1,599.1,112.6,599.1z"/>
	<path class="st1" d="M-18.9,630.7v-25.2c0-3.1,2.2-5.7,5.1-6.3c-0.4-0.1-0.9-0.1-1.3-0.1h-1.4c-3.5,0-6.4,2.9-6.4,6.4v25.2
		c0,3.5,2.9,6.4,6.4,6.4h1.4c0.4,0,0.9,0,1.3-0.1C-16.7,636.4-18.9,633.8-18.9,630.7z"/>
	<g class="st1">
		<path d="M98,691.2h-1.4c-0.4,0-0.9,0-1.3,0.1c2.9,0.6,5.1,3.2,5.1,6.3v34.2c0,3.1-2.2,5.7-5.1,6.3c0.4,0.1,0.9,0.1,1.3,0.1H98
			c3.5,0,6.4-2.9,6.4-6.4v-34.2C104.4,694.1,101.5,691.2,98,691.2z"/>
		<path d="M46.7,731.8v-34.2c0-3.1,2.2-5.7,5.1-6.3c-0.4-0.1-0.9-0.1-1.3-0.1h-1.4c-3.5,0-6.4,2.9-6.4,6.4v34.2
			c0,3.5,2.9,6.4,6.4,6.4h1.4c0.4,0,0.9,0,1.3-0.1C48.9,737.4,46.7,734.8,46.7,731.8z"/>
		<g>
			<path d="M85.2,706.7c-2.5,3.7-3.4,4.6-4,6c-1,1.4-1.6,4.3-5.8,14c-1.8,2.9-2.8,5.4-4.6,5.4c-0.4,0-0.7,0-1.1-0.3l-0.4-1.4
				c1.2-10,0.2-3.7,3.4-18.6c0.1-1.1,0.4-2,0.4-2.9c0-0.3-0.1-0.9-0.4-1.4l-1.3,1.1c-3.6,4.9-5.9,9.5-8.8,17.2
				c-1.5,2.9-3.6,5.7-5.6,5.7c-0.2-0.9-0.4-1.7-0.4-2.6c0-1.7,0.5-3.7,0.7-6.3l2.8-14v-2l-1.1-1.4h-1.1l-2.7,3.4l-2.5,4l-2.3,3.2
				h-0.1c-0.4,0-0.5-0.3-0.5-0.6c0-1.4,2.3-5.7,3.5-7.5l3-4.6c5.3-8,2.8-7.2,7-7.7c0.8,1.4,1.5,3.2,1.5,5.7c0,4.9-2.5,11.5-2.5,14.6
				c0,0.9,0.1,1.4,0.6,2l5.3-8.9c3.9-6.3,4.2-9.2,8.4-11.7c0.7,0.9,1,2.3,1,4.3c0,5.2-1.8,12.9-2.2,14.6l-0.1,2.6l1.3-0.9l1.6-3.2
				c2.4-4.9,7.4-17.2,11-16.9c1.7,0,2.1,1.4,2.1,3.7c0,1.1-0.1,2.3-0.1,3.7c-0.8,6-3.3,10.6-3.3,14c0,1.1,0.2,2,0.7,2.9
				c2.3-2.3,4.4-5.2,6.5-8c0.5-0.9,1.8-2.6,2.4-2.6c0.1,0,0.2,0,0.2,0.6c0,0.3-0.1,0.9-0.5,2l-2.4,3.7l-1.3,2
				c-2.9,4.3-6.8,12.9-10.3,12.9c-0.5-2.9-0.8-4.6-0.8-6c0-2.9,0.7-4.9,2.2-9.7l2.1-7.2c0-0.9,0.1-1.4,0.1-1.7
				c0-1.1-0.2-1.4-0.7-1.4H85.2z"/>
		</g>
	</g>
	<g class="st1">
		<text transform="matrix(1 0 0 1 259.2687 827.51)" style="font-family:'VolutaScriptPro-Regular'; font-size:77px;">f</text>
		<g>
			<path d="M241.4,815.7c-4.8,3-6.4,3.6-7.5,4.8c-1.8,1.1-3,3.4-10.9,11.1c-3.4,2.3-5.2,4.3-8.6,4.3c-0.7,0-1.4,0-2-0.2l-0.7-1.1
				c2.3-7.9,0.5-3,6.4-14.8c0.2-0.9,0.7-1.6,0.7-2.3c0-0.2-0.2-0.7-0.7-1.1l-2.5,0.9c-6.8,3.9-11.1,7.5-16.6,13.6
				c-2.7,2.3-6.8,4.5-10.4,4.5c-0.5-0.7-0.7-1.4-0.7-2c0-1.4,0.9-3,1.4-5l5.2-11.1v-1.6l-2-1.1h-2l-5,2.7l-4.8,3.2l-4.3,2.5h-0.2
				c-0.7,0-0.9-0.2-0.9-0.5c0-1.1,4.3-4.5,6.6-5.9l5.7-3.6c10-6.4,5.2-5.7,13.2-6.1c1.6,1.1,2.7,2.5,2.7,4.5c0,3.9-4.8,9.1-4.8,11.6
				c0,0.7,0.2,1.1,1.1,1.6l10-7c7.3-5,7.9-7.3,15.7-9.3c1.4,0.7,1.8,1.8,1.8,3.4c0,4.1-3.4,10.2-4.1,11.6l-0.2,2l2.5-0.7l3-2.5
				c4.5-3.9,13.8-13.6,20.7-13.4c3.2,0,3.9,1.1,3.9,3c0,0.9-0.2,1.8-0.2,3c-1.6,4.8-6.1,8.4-6.1,11.1c0,0.9,0.5,1.6,1.4,2.3
				c4.3-1.8,8.2-4.1,12.3-6.4c0.9-0.7,3.4-2,4.5-2c0.2,0,0.5,0,0.5,0.5c0,0.2-0.2,0.7-0.9,1.6l-4.5,3l-2.5,1.6
				c-5.4,3.4-12.7,10.2-19.3,10.2c-0.9-2.3-1.6-3.6-1.6-4.8c0-2.3,1.4-3.9,4.1-7.7l3.9-5.7c0-0.7,0.2-1.1,0.2-1.4
				c0-0.9-0.5-1.1-1.4-1.1H241.4z"/>
		</g>
	</g>
	<g class="st1">
		<g>
			<path d="M79.2,815.7c-4.8,3-6.4,3.6-7.5,4.8c-1.8,1.1-3,3.4-10.9,11.1c-3.4,2.3-5.2,4.3-8.6,4.3c-0.7,0-1.4,0-2-0.2l-0.7-1.1
				c2.3-7.9,0.5-3,6.4-14.8c0.2-0.9,0.7-1.6,0.7-2.3c0-0.2-0.2-0.7-0.7-1.1l-2.5,0.9c-6.8,3.9-11.1,7.5-16.6,13.6
				c-2.7,2.3-6.8,4.5-10.4,4.5c-0.5-0.7-0.7-1.4-0.7-2c0-1.4,0.9-3,1.4-5l5.2-11.1v-1.6l-2-1.1h-2l-5,2.7l-4.8,3.2l-4.3,2.5h-0.2
				c-0.7,0-0.9-0.2-0.9-0.5c0-1.1,4.3-4.5,6.6-5.9l5.7-3.6c10-6.4,5.2-5.7,13.2-6.1c1.6,1.1,2.7,2.5,2.7,4.5c0,3.9-4.8,9.1-4.8,11.6
				c0,0.7,0.2,1.1,1.1,1.6l10-7c7.3-5,7.9-7.3,15.7-9.3c1.4,0.7,1.8,1.8,1.8,3.4c0,4.1-3.4,10.2-4.1,11.6l-0.2,2l2.5-0.7l3-2.5
				c4.5-3.9,13.8-13.6,20.7-13.4c3.2,0,3.9,1.1,3.9,3c0,0.9-0.2,1.8-0.2,3c-1.6,4.8-6.1,8.4-6.1,11.1c0,0.9,0.5,1.6,1.4,2.3
				c4.3-1.8,8.2-4.1,12.3-6.4c0.9-0.7,3.4-2,4.5-2c0.2,0,0.5,0,0.5,0.5c0,0.2-0.2,0.7-0.9,1.6l-4.5,3l-2.5,1.6
				c-5.4,3.4-12.7,10.2-19.3,10.2c-0.9-2.3-1.6-3.6-1.6-4.8c0-2.3,1.4-3.9,4.1-7.7l3.9-5.7c0-0.7,0.2-1.1,0.2-1.4
				c0-0.9-0.5-1.1-1.4-1.1H79.2z"/>
		</g>
		
			<text transform="matrix(0.4078 0.9131 -0.9131 0.4078 49.8367 840.5694)" style="font-family:'VolutaScriptPro-Regular'; font-size:77px;">f</text>
	</g>
	<g class="st1">
		<path d="M-136.5-92.6h-3.9c-1.2,0-2.5,0.1-3.6,0.4c8.1,1.7,14.3,9,14.3,17.5v95.6c0,8.5-6.2,15.8-14.3,17.5
			c1.2,0.2,2.4,0.4,3.6,0.4h3.9c9.8,0,17.9-8.1,17.9-17.9v-95.6C-118.6-84.5-126.7-92.6-136.5-92.6z"/>
		<path d="M-279.7,20.9v-95.6c0-8.5,6.2-15.8,14.3-17.5c-1.2-0.2-2.4-0.4-3.6-0.4h-3.9c-9.8,0-17.9,8.1-17.9,17.9v95.6
			c0,9.8,8.1,17.9,17.9,17.9h3.9c1.2,0,2.5-0.1,3.6-0.4C-273.5,36.7-279.7,29.4-279.7,20.9z"/>
		<g>
			<path d="M-172.3-49.1c-7.1,10.4-9.5,12.8-11.2,16.8c-2.7,4-4.4,12-16.3,39.2c-5.1,8-7.8,15.2-12.9,15.2c-1,0-2,0-3-0.8l-1-4
				c3.4-28,0.7-10.4,9.5-52c0.3-3.2,1-5.6,1-8c0-0.8-0.3-2.4-1-4l-3.7,3.2c-10.2,13.6-16.6,26.4-24.7,48c-4.1,8-10.2,16-15.6,16
				c-0.7-2.4-1-4.8-1-7.2c0-4.8,1.4-10.4,2-17.6l7.8-39.2v-5.6l-3-4h-3l-7.4,9.6l-7.1,11.2l-6.4,8.8h-0.3c-1,0-1.4-0.8-1.4-1.6
				c0-4,6.4-16,9.8-20.8l8.5-12.8c14.9-22.4,7.8-20,19.6-21.6c2.4,4,4.1,8.8,4.1,16c0,13.6-7.1,32-7.1,40.8c0,2.4,0.3,4,1.7,5.6
				l14.9-24.8c10.8-17.6,11.9-25.6,23.4-32.8c2,2.4,2.7,6.4,2.7,12c0,14.4-5.1,36-6.1,40.8l-0.3,7.2l3.7-2.4l4.4-8.8
				c6.8-13.6,20.7-48,30.8-47.2c4.7,0,5.8,4,5.8,10.4c0,3.2-0.3,6.4-0.3,10.4c-2.4,16.8-9.1,29.6-9.1,39.2c0,3.2,0.7,5.6,2,8
				c6.4-6.4,12.2-14.4,18.3-22.4c1.4-2.4,5.1-7.2,6.8-7.2c0.3,0,0.7,0,0.7,1.6c0,0.8-0.3,2.4-1.4,5.6l-6.8,10.4l-3.7,5.6
				c-8.1,12-19,36-28.8,36c-1.4-8-2.4-12.8-2.4-16.8c0-8,2-13.6,6.1-27.2l5.8-20c0-2.4,0.3-4,0.3-4.8c0-3.2-0.7-4-2-4H-172.3z"/>
		</g>
	</g>
</g>
<g id="Layer_2">
	<g>
		<path d="M192.8,56.9h-3.9c-1.2,0-2.5,0.1-3.6,0.4c8.1,1.7,14.3,9,14.3,17.5v95.6c0,8.5-6.2,15.8-14.3,17.5
			c1.2,0.2,2.4,0.4,3.6,0.4h3.9c9.8,0,17.9-8.1,17.9-17.9V74.8C210.7,65,202.6,56.9,192.8,56.9z"/>
		<path d="M49.6,170.3V74.8c0-8.5,6.2-15.8,14.3-17.5c-1.2-0.2-2.4-0.4-3.6-0.4h-3.9c-9.8,0-17.9,8.1-17.9,17.9v95.6
			c0,9.8,8.1,17.9,17.9,17.9h3.9c1.2,0,2.5-0.1,3.6-0.4C55.8,186.1,49.6,178.9,49.6,170.3z"/>
		<g>
			<path d="M157,100.3c-7.1,10.4-9.5,12.8-11.2,16.8c-2.7,4-4.4,12-16.3,39.2c-5.1,8-7.8,15.2-12.9,15.2c-1,0-2,0-3-0.8l-1-4
				c3.4-28,0.7-10.4,9.5-52c0.3-3.2,1-5.6,1-8c0-0.8-0.3-2.4-1-4l-3.7,3.2c-10.2,13.6-16.6,26.4-24.7,48c-4.1,8-10.2,16-15.6,16
				c-0.7-2.4-1-4.8-1-7.2c0-4.8,1.4-10.4,2-17.6l7.8-39.2v-5.6l-3-4h-3l-7.4,9.6l-7.1,11.2l-6.4,8.8h-0.3c-1,0-1.4-0.8-1.4-1.6
				c0-4,6.4-16,9.8-20.8l8.5-12.8c14.9-22.4,7.8-20,19.6-21.6c2.4,4,4.1,8.8,4.1,16c0,13.6-7.1,32-7.1,40.8c0,2.4,0.3,4,1.7,5.6
				l14.9-24.8c10.8-17.6,11.9-25.6,23.4-32.8c2,2.4,2.7,6.4,2.7,12c0,14.4-5.1,36-6.1,40.8l-0.3,7.2l3.7-2.4l4.4-8.8
				c6.8-13.6,20.7-48,30.8-47.2c4.7,0,5.8,4,5.8,10.4c0,3.2-0.3,6.4-0.3,10.4c-2.4,16.8-9.1,29.6-9.1,39.2c0,3.2,0.7,5.6,2,8
				c6.4-6.4,12.2-14.4,18.3-22.4c1.4-2.4,5.1-7.2,6.8-7.2c0.3,0,0.7,0,0.7,1.6c0,0.8-0.3,2.4-1.4,5.6l-6.8,10.4l-3.7,5.6
				c-8.1,12-19,36-28.8,36c-1.4-8-2.4-12.8-2.4-16.8c0-8,2-13.6,6.1-27.2l5.8-20c0-2.4,0.3-4,0.3-4.8c0-3.2-0.7-4-2-4H157z"/>
		</g>
	</g>
</g>
</svg>
